HIERARCHY
ROOT hip
{
	OFFSET 0.000000 0.000000 0.000000 
	CHANNELS 6 Xposition Yposition Zposition Xrotation Zrotation Yrotation
	JOINT abdomen
	{
		OFFSET 0.000000 3.402643 0.000000 
		CHANNELS 3 Xrotation Zrotation Yrotation
		JOINT chest
		{
			OFFSET 0.000000 8.438565 -0.680529 
			CHANNELS 3 Xrotation Zrotation Yrotation
			JOINT neck
			{
				OFFSET 0.000000 10.207942 -0.272212 
				CHANNELS 3 Xrotation Zrotation Yrotation
				JOINT head
				{
					OFFSET 0.000000 3.130431 0.000000 
					CHANNELS 3 Xrotation Zrotation Yrotation
					End Site
					{
						OFFSET 0.000000 3.130435 0.000000 
					}
				}
			}
			JOINT lCollar
			{
				OFFSET 3.470700 6.669187 -0.816635 
				CHANNELS 3 Yrotation Zrotation Xrotation
				JOINT lShldr
				{
					OFFSET 3.198488 0.000000 0.000000 
					CHANNELS 3 Zrotation Yrotation Xrotation
					JOINT lForeArm
					{
						OFFSET 10.139888 0.000000 0.000000 
						CHANNELS 3 Yrotation Zrotation Xrotation
						JOINT lHand
						{
							OFFSET 8.370511 0.000000 0.000000 
							CHANNELS 3 Zrotation Yrotation Xrotation
							End Site
							{
								OFFSET 4.083176 0.000000 0.000000 
							}
						}
					}
				}
			}
			JOINT rCollar
			{
				OFFSET -3.470700 6.669187 -0.816635 
				CHANNELS 3 Yrotation Zrotation Xrotation
				JOINT rShldr
				{
					OFFSET -3.198488 0.000000 0.000000 
					CHANNELS 3 Zrotation Yrotation Xrotation
					JOINT rForeArm
					{
						OFFSET -10.139888 0.000000 0.000000 
						CHANNELS 3 Yrotation Zrotation Xrotation
						JOINT rHand
						{
							OFFSET -8.370511 0.000000 0.000000 
							CHANNELS 3 Zrotation Yrotation Xrotation
							End Site
							{
								OFFSET -4.083176 0.000000 0.000000 
							}
						}
					}
				}
			}
		}
	}
	JOINT lThigh
	{
		OFFSET 5.308129 -1.633274 1.361059 
		CHANNELS 3 Xrotation Zrotation Yrotation
		JOINT lShin
		{
			OFFSET -2.041588 -20.007561 0.000000 
			CHANNELS 3 Xrotation Zrotation Yrotation
			JOINT lFoot
			{
				OFFSET 0.000000 -19.190928 -1.224953 
				CHANNELS 3 Xrotation Yrotation Zrotation
				End Site
				{
					OFFSET 0.000000 -2.449906 4.627600 
				}
			}
		}
	}
	JOINT rThigh
	{
		OFFSET -5.308129 -1.633274 1.361059 
		CHANNELS 3 Xrotation Zrotation Yrotation
		JOINT rShin
		{
			OFFSET 2.041588 -20.007561 0.000000 
			CHANNELS 3 Xrotation Zrotation Yrotation
			JOINT rFoot
			{
				OFFSET 0.000000 -19.190928 -1.224953 
				CHANNELS 3 Xrotation Yrotation Zrotation
				End Site
				{
					OFFSET 0.000000 -2.449906 4.627600 
				}
			}
		}
	}
}
MOTION
Frames: 11
Frame Time: 0.033333
0.000000 43.556049 -30.240993 -27.773438 0.000000 0.000000 7.910156 0.000000 0.000000 6.503906 0.000000 0.000000 16.347654 0.000000 0.000000 28.300781 0.000000 -0.361354 1.679688 -0.996094 0.664063 -39.150391 77.011719 53.916016 -55.779755 5.819821 10.004949 -0.006417 -3.172490 0.267523 -2.021484 0.654297 0.673717 37.880859 -77.246094 54.824219 55.943291 -5.788766 10.693189 0.006417 3.172490 0.092282 -23.442852 9.929621 -1.306542 32.718952 -4.390156 -2.687737 -19.119522 -0.145937 -5.093991 -23.839174 -9.127581 -0.082690 34.019775 3.900447 2.451017 -21.923731 0.859252 3.303910 
0.000000 30.328512 -27.533529 8.955078 0.000000 0.000000 10.009766 0.195313 0.097690 8.251953 0.146484 0.166016 2.099609 -0.058594 0.361328 9.482422 -0.068359 -0.361328 1.943359 -0.830078 0.312500 -35.117188 64.775391 44.248047 -60.242405 15.978348 10.477165 -0.006433 -3.182256 0.267522 -1.689453 0.966797 0.302734 34.599606 -64.697266 44.511719 60.229286 -15.978823 11.030167 -0.003364 3.172506 0.257757 -87.225098 12.245747 -4.153296 93.943939 1.346789 -7.223449 -31.699568 -2.220474 -6.048681 -88.311569 -12.099255 2.019934 94.489159 -3.203008 4.833173 -31.312841 4.606477 6.552033 
0.000000 18.112152 -24.586784 53.076172 0.000000 0.000000 8.603516 0.000000 0.000000 7.548829 0.000000 0.000000 -14.062500 0.000000 0.000000 -12.314453 0.000000 -0.361328 1.660156 -0.996094 0.136889 -18.349609 62.070313 72.489090 -73.593628 23.738178 13.429784 -0.006417 -3.172490 0.091742 -2.011719 0.654297 0.146373 17.968750 -62.109375 72.549965 73.611404 -23.473209 14.149996 -0.237749 3.426759 0.069020 -138.434296 22.625998 -5.190464 130.872208 5.626597 -9.880651 -47.175579 -11.037961 -4.300562 -141.952393 -24.247967 1.606317 131.038239 -10.203553 4.933764 -44.705399 13.249528 5.817469 
0.000000 17.103439 -25.198956 60.117188 0.000000 -0.175781 10.185547 -0.361328 -0.175843 10.888672 0.166016 0.000028 -21.093750 0.000000 -0.185547 -19.863281 0.048828 -0.888663 1.542969 -0.839844 0.136719 -49.765625 -64.375000 0.410157 -82.622269 12.607325 17.294790 0.149617 -3.485229 0.073294 -2.138672 0.820312 0.136719 50.712891 64.375000 1.708025 82.613403 -13.400280 17.311676 -0.423557 3.485591 -0.117027 -125.381821 25.592928 -3.910727 136.980362 7.921578 -8.569082 -76.517387 -11.016355 -9.358313 -126.371971 -24.177912 -3.517761 137.214615 -15.282555 1.661926 -74.527534 7.897705 9.571763 
0.000000 23.766361 -26.848392 53.076172 0.000000 0.000000 8.603516 0.000000 0.000000 6.855469 0.000000 0.000000 -13.193360 0.000000 0.000000 -12.128906 0.000000 -0.712891 1.669922 -0.996094 0.488281 57.294922 -67.958984 -125.692650 -80.148598 -0.720973 18.615206 0.100964 -3.309376 -0.275546 -2.021484 0.654297 0.497935 -58.222656 67.695313 -126.533203 79.453575 0.024448 18.471050 -0.296550 3.348713 -0.100243 -89.301735 19.598310 -0.171618 116.678001 6.196556 -2.546999 -81.666832 -5.050268 -14.685979 -88.139389 -17.743279 -2.928807 115.453911 -12.295526 -4.638240 -81.369957 0.969227 18.594679 
0.000000 33.143547 -26.694664 58.437500 -0.048828 0.273429 -2.138672 0.224609 0.185585 -9.902344 0.292969 0.048878 9.472656 -0.078125 0.185547 8.203124 -0.312500 -0.556641 1.679688 -1.230469 0.029297 -81.679688 -130.849609 19.982847 -61.949638 0.526995 14.491075 0.120470 -3.348468 -0.198507 -1.972656 0.791016 0.039063 80.459000 131.220703 18.688984 61.069870 -1.120274 14.430047 -0.257434 3.338896 -0.059020 -55.949066 14.889091 7.399028 66.395866 2.786715 0.611951 -41.720974 -12.040257 -13.173090 -54.846035 -14.762762 -8.313488 64.918541 -6.025302 -4.770791 -45.067829 11.666714 17.830128 
0.000000 41.294403 -25.717653 65.917969 0.000000 0.000000 -10.019531 0.000000 0.000000 -20.214844 0.000000 0.000000 27.763672 0.000000 0.000000 23.896484 -0.185547 -1.093750 1.630859 -1.308594 -0.585714 -90.732414 -131.123047 29.484831 -36.571228 4.448789 9.434505 0.169184 -3.485257 0.072213 -2.031250 1.015625 -0.576172 90.322289 131.416016 29.050291 35.805141 -5.083824 9.244125 -0.267151 3.387737 0.077162 -29.656797 10.302115 11.763609 13.271013 -0.539429 -0.559394 24.385792 -14.843374 -0.811653 -29.057947 -11.002984 -13.744075 12.785574 -0.361026 0.268771 19.312231 16.917881 2.179982 
0.000000 45.444366 -25.430786 60.664059 0.214844 -1.201172 -4.414063 -0.722656 -0.771484 -8.183595 -1.894531 -0.351563 25.273436 0.351562 -0.732422 20.751951 0.927734 -2.460938 1.660156 -1.162109 -0.449021 -75.000000 -123.173828 13.194950 -16.900093 -1.686254 8.490126 0.091093 -3.367955 0.125378 -2.128906 0.888672 -0.439453 74.531273 123.457039 12.986663 16.065302 1.139172 7.765506 -0.218251 3.377905 0.314238 -50.630249 11.180632 0.139313 80.152298 4.805786 -4.916087 23.267397 -7.654261 -4.262060 -51.586742 -12.694308 -2.891361 80.053223 -7.802176 1.570898 21.688522 14.091248 0.950192 
0.000000 46.948589 -25.717653 45.341797 0.166016 -2.392550 1.191406 -1.894531 -1.679688 6.142579 -3.515625 -0.918568 15.097657 0.527344 -1.406160 12.294922 2.109375 -3.466438 1.650391 -0.996094 -0.038893 -93.837883 -123.505859 31.349277 -20.498075 -5.217707 10.443227 -0.006417 -3.172490 0.091742 -2.011719 0.644531 -0.029297 93.115234 123.828117 31.083982 19.719633 4.763336 9.450242 -0.120542 3.299639 0.436826 -83.170151 15.966380 -7.074925 134.047974 8.419257 -7.075768 6.405785 -7.982485 -3.399770 -87.272049 -14.960973 3.210210 133.645676 -13.218612 0.567712 8.771586 13.648046 -0.010310 
0.000000 47.758308 -26.100115 27.822266 -0.449219 -2.695313 -6.171875 -3.300781 -2.265625 2.519531 -3.125000 -1.523970 12.783204 0.136719 -1.503883 13.427735 2.460938 -3.124581 1.503906 -1.005859 0.019703 -17.822268 -38.105469 -45.507813 -54.268272 5.753573 12.750714 -0.025930 -3.143162 0.180717 -1.552734 0.595703 0.039063 17.578125 37.753910 -45.443241 53.927822 -6.266161 12.282996 -0.032644 3.211615 0.246372 -110.533966 19.384207 1.714579 92.429871 4.179219 -2.737836 11.417015 -12.985455 -0.125998 -110.901207 -19.255377 -9.715575 90.861160 -6.728278 -2.202152 6.992229 19.501873 -6.872861 
0.000000 48.079426 -26.283024 19.316404 -0.878906 -2.617188 -13.066406 -4.013672 -2.451201 -3.994141 -2.421875 -1.826585 14.062500 -0.195313 -1.396484 16.699219 2.402344 -2.626954 1.396484 -1.064453 -0.048828 -88.261719 -24.960938 24.482420 -77.189682 14.662379 13.822822 -0.016213 -3.182240 0.258297 -1.259766 0.625000 -0.029297 88.447266 24.609373 24.828285 77.161484 -15.247417 13.791482 0.006417 3.172490 0.092282 -66.433601 14.363998 25.026028 10.763574 -2.521878 0.080560 3.343156 -25.263029 -7.300392 -66.786980 -9.834363 -34.076527 8.710449 2.252443 -1.498320 -6.847768 30.038527 6.600223 
